<svg xmlns="http://www.w3.org/2000/svg" version="1.1" xmlns:xlink="http://www.w3.org/1999/xlink" xmlns:svgjs="http://svgjs.dev/svgjs" viewBox="0 0 800 800"><g fill="none" stroke-width="1.5" stroke="hsl(230, 55%, 40%)" stroke-linecap="round"><path d="M1112.4 624.7C1111.94 657.56 1023.23 697.25 883.12 738.65 737.43 774.52 631.81 801.34 590.86 808.16 619.72 796.78 698.23 755.17 795.21 683.96 924.12 573.55 932.24 562.82 828.47 757.06 735.29 919.81 641.68 1046.97 556.97 1081.54 473.72 1008.65 404.1 854.82 348.28 695.72 294.57 625.34 251.51 684.62 218.65 851.47 185.78 1032.58 164.68 1118.77 156.42 1068.98 150.27 913.8 160.11 733.28 186.41 610.15 214.17 588.05 253.67 661.99 296.21 783.37 321.97 908.74 329.51 981.21 304.33 984.11 239.93 923.35 136.89 817.56 5.8 697.32 -125.39 571.97 -233.37 467.22 -286.31 388.14 -269.45 325.15 -182.53 281.42 -49.53 247.93 77.89 220.07 159.95 191.88 160.4 159.02 72.85 126.16 -63.13 90.19 -195.14 56.07 -284.36 27.58 -296.73 11.53 -234.33 17.56 -116.78 39.7 22.33 90.33 148.56 165.02 242.7 234.62 289.75 293.25 294.24 310.95 261.15 264.99 210.25 153.58 158.58 -6 104.35 -161.6 67.13 -265.02 49.66 -267.03 40.68 -168.01 48.58 -6.19 68.59 136.31 91.97 173.44 121.44 80.63 154.3 -100.46 187.16 -267.33 221.86 -319.98 260.45 -236.95 302.41 -65.18 354.29 107.36 420.22 204.35 494.63 193.89 585.97 96.21 690.84 -32.31 793.17 -147.58 891.24 -198.16 967.4 -176.32 1005.98 -92.83 997.89 26.89 937.97 151.66 845.95 273.53 736.31 369.25 642.84 437.59 604.53 487.72 635.6 520.69 737.51 546.79 882.2 567.37 1024.85 591.84 1112.4 624.7Q1112.4 624.7 1112.4 624.7" opacity="0.47"></path><path d="M1078.4 630.96C1081.09 661.47 1006.12 683.99 881.57 695.61 743.06 703.18 628.97 693.16 564.32 661.95 558.89 624.4 604.44 569.22 679.93 507.22 772.18 465 851.5 447.8 903.3 476.62 928.26 557.92 918.55 686.96 882.12 839.86 824.74 970.36 755.9 1042.5 685.84 1022.82 610.72 920.5 543.07 768.97 486.79 635.44 430.54 591.05 386.44 659.73 355.93 817.47 325.41 987.59 309.93 1080.13 308.63 1056.2 307.37 931.55 319.52 762.82 341.75 620.01 358.94 548.98 377.52 566.26 387.88 647.97 377.28 765.87 343.18 869.07 278.22 928.77 186.43 940.37 70.93 899.51 -53.08 824.57 -160.35 724.53 -233.26 621.6 -250.19 529.37 -207.91 440.15 -111.19 368.56 15.54 313.57 128.31 262.03 197.1 221.82 194.4 191.3 115.49 160.79 -7.74 141.42 -133.43 135.41 -230.25 132.84 -265.5 148.92 -234.56 185.26 -148.23 224.6 -28.36 277.29 96.57 330.3 209.3 358.23 290.05 355.29 334.67 303.71 344.52 204.02 328.38 64.65 299.34 -85.01 257.23 -198.5 219.82 -243.17 194.05 -194.53 169.79 -74.09 160.65 77.26 166.2 190.15 173.54 202.34 192.88 103.64 223.39 -66.46 253.9 -224.22 294.15 -286.74 344.36 -230.61 396.35 -85.31 461 83.58 538.14 208.29 616.79 250.35 704.45 205.59 793.58 106.87 869.66 -14.25 929.6 -107.12 959.75 -148.43 955.11 -137.28 910.55 -76.28 829.59 12.95 736.42 121.98 643.92 227.41 579.95 317.84 571.39 401.93 624 467.46 732.6 517.45 870.07 563.38 999.49 600.44 1078.4 630.96Q1078.4 630.96 1078.4 630.96" opacity="0.69"></path><path d="M1044.4 493.94C1049.77 522.1 987.72 533.8 879.2 529.34 751.14 524.08 634.55 502.47 552.85 468 517.62 438.98 529.24 408.88 575.68 391.2 649.01 402.11 725.73 446.34 790.54 531.61 843.09 646.7 869.4 781.64 870.83 907.87 853.8 989.81 819.52 1005.83 776.09 942.9 724.44 825.16 672.64 685.85 626.17 580.41 578.18 559.78 538.9 635.4 510.73 783.47 482.56 942.15 466.85 1038.57 461.71 1037.48 455.07 944.43 455.63 796.27 458.46 648.28 453.09 542.19 440.98 506.29 414.6 536.46 369.75 619.35 303.01 718.68 213.54 804.5 111.82 868.28 1.7 890.29 -100.95 874.81 -176.71 829.57 -213.6 764.32 -199.02 693.25 -137.96 614.1 -37.4 542.49 79.78 483.94 177.43 425.36 233.77 381.21 228.4 353.03 157.81 324.87 47.4 314.01 -70.06 319.46 -170.22 324.89 -223.28 345.27 -220.69 375.61 -167.12 397.87 -74.25 416.74 36.57 418.58 151.55 390.65 250.82 328.21 325.1 227.53 373.73 104.8 396.06 -27.92 399.61 -140.15 385.83 -199.66 366.61 -189.04 349.94 -103.61 323.54 89.79 327.4 177.25 362.69 -32.46 390.86 -180.54 431.61 -250.48 483.57 -219.01 535.5 -102.72 597.96 52.62 667.56 191.01 733.05 274.6 798.65 283.85 855.84 231.24 895.71 134.34 913.82 32.8 902.1 -45.37 864.74 -93.73 798.87 -97.53 713.22 -65.02 631.71 -3.93 564.1 72.54 531.17 150.37 549.23 233.66 618.32 306.51 729.35 364.88 857.69 422.47 973.81 465.77 1044.4 493.94Q1044.4 493.94 1044.4 493.94" opacity="0.50"></path><path d="M1010.4 298.64C1017.98 324.46 967.93 335.77 875.52 334.94 760.48 336.08 646.89 329.63 555.21 322.26 496.78 326.17 477.39 341.52 492.11 377.97 537.19 437.89 596.61 525.31 657.12 636.62 718.37 752.39 764.59 862.37 792.46 941.75 808.59 970.1 807.18 937.75 792.61 846.52 770.19 727.04 741.24 607.73 710.54 531.2 677.76 531.5 647.32 611.62 621.5 749.47 595.68 896.29 575.71 994.15 559.79 1012.46 541.79 950.36 523.77 829.03 501.45 689.13 471.28 564.6 430.17 487.1 374.24 465.58 306.58 497.92 223.29 565 128.2 643.25 33.85 724.9 -56.17 785.27 -128.14 818.02 -169.74 829.55 -173.51 815.85 -134 785.73 -61.24 743.48 37.64 696.8 142.72 653.26 225.17 607.21 269.98 569.71 262.4 543.89 199.82 518.06 102.14 505.15 -5.5 502.5 -105.05 497.35 -170.51 497.06 -191.65 494.57 -169.42 479.95 -107.48 451.14 -20.23 399.82 82.35 327.28 183.59 229.86 272.34 114.37 347.27 2.27 401.44 -95.43 436.95 -154.66 456.72 -160.03 465.23 -105.71 468.9 -0.11 465.49 174.18 483.69 199.87 516.78 1.52 542.6 -136.33 578.47 -211.24 622.22 -201.61 664.68 -115.12 712.17 18.87 760.06 157.28 818.14 295.2 850.9 229.33 801.26 107.71 746.35 30.24 675.72 -20.11 600.02 -40.24 539.65 -36.89 500.86 -9.72 497.56 31.1 537.63 83.22 617.78 136.64 727.29 184.19 844.91 233.72 947.82 272.82 1010.4 298.64Q1010.4 298.64 1010.4 298.64" opacity="0.40"></path><path d="M976.41 166.22C985.7 189.69 946.62 208.29 869.99 224.34 769.83 243.22 663.98 265.02 569.3 295.11 495.57 335.12 451.24 390.77 436.29 465.04 449.68 549.82 482.56 648.25 525.21 750.51 577.49 838.17 625.45 903.23 663.44 928.98 697.55 909.62 717.95 843.2 725.32 740.11 723.79 583.8 678.05 547.26 644.21 715.48 620.74 850.06 595.64 947.03 568.01 980.9 538.65 947.53 503.61 856.5 460.64 735.46 412.59 609.31 353.54 507.04 283.25 443.95 209.08 424.32 127.43 443.92 44.38 488.75 -29.03 553.69 -89.73 617.98 -127.56 670.57 -137.06 716.39 -113.78 742.55 -57.25 750.69 20.21 749.7 112.7 736.55 203.8 716.45 271.38 693.47 305.7 668.96 296.41 645.49 241.51 622.02 156.36 600.7 59.74 579.41 -35.65 555.24 -108.09 525.7 -147.27 486.01 -152.41 437.19 -121.53 372.37 -63.05 290.38 16.3 201.61 104.78 103.63 191.87 7.92 276.27 -67.66 348.4 -115.09 406.29 -119.91 453.79 -81.26 488.91 -0.04 515.12 108.89 534.83 212.73 551.2 290.41 567.77 314.72 582.62 271.79 601.04 170.06 624.51 35.48 647.98 -91.63 675.39 -169.08 704.81 -177.94 732.51 -120.36 758.83 -12.91 779.81 113.54 794.28 233.83 797.82 321.3 786.5 365.11 764.79 363.8 726.36 326.57 672.73 269.68 616.4 198.18 555.75 133.45 500.82 84.84 466.78 46.75 456.94 29.75 479.27 30.42 535.65 41.01 621.44 61.91 725.89 87.29 831.57 115.51 921.48 142.73 976.4 166.21Q976.41 166.22 976.41 166.22" opacity="0.66"></path><path d="M942.26 178.69C953 199.82 923.96 226.44 862.58 259.32 778.47 294.1 684.16 338.41 592.81 393.84 511.98 453.51 450.7 525.23 411.84 606.26 395.62 684.89 399.07 762.72 416.28 829.18 447.06 872.72 481.45 887.76 513.64 866.34 548.3 813.37 575.08 730.42 592.06 630.93 610.2 507.77 597.17 524.48 569.46 681.37 548.33 803.36 520.26 897.24 485.44 942.65 449.74 934.42 405.87 874.34 353.84 779.48 300.26 666.37 238.69 557.8 171.47 470.13 106.72 409.69 42 382.12 -16.46 382.49 -61.35 408.03 -89.85 446.68 -95.63 488.09 -78.76 535.14 -36.43 573.53 28.9 599.58 104.77 622.9 187.05 633.22 263.01 631.59 316.24 628.37 341 615.81 330.26 594.69 282.48 573.57 209.37 544.87 124.55 508.27 36.34 470.06 -37.81 421.31 -88.66 361.39 -115.1 298.73 -111.77 225.55 -82.61 145.94 -32.02 71.97 33.41 2.98 105.38 -50.24 182.65 -78.31 256.18 -75.8 321.82 -37.36 383.48 28.3 435.27 117.92 477.64 215.55 515.82 294.92 547.31 343 573.88 343.09 599.06 289.55 621.88 191.41 643.01 69.42 673.35 -85.34 713.96 -77.64 715.86 67 710.09 181.97 693.1 283.88 664 358.86 630.91 402.27 587.71 412.29 538.13 396.44 493.85 357.66 453.46 310.16 424.86 264.09 417.69 215.61 433.31 178.68 475.24 155.62 541.57 136.8 627.76 130.92 724.12 135.98 817.09 142.94 894.48 157.57 942.26 178.69Q942.26 178.69 942.26 178.69" opacity="0.18"></path><path d="M908.4 328.65C919.71 347.43 899.14 376.59 851.68 415.24 783.74 454.19 703.59 502.8 620.92 559.29 541.02 614.35 472.02 673.81 417.96 732.41 368.12 800.52 358.96 826.48 380.57 761.08 401.86 692.74 420.95 610.49 434.84 526.99 449.94 461.81 457.7 422.85 456.94 421.91 456.17 463.79 446.7 543.24 427.92 647.53 409.14 756.64 381.94 845.35 347.3 898.18 312.65 910.44 270.73 879.3 223.09 814.07 176.65 724.61 126.64 626.4 76.41 533.44 31.99 451.3 -7.21 390.01 -36.31 350.96 -52.31 332.49 -52.25 331.62 -33.13 341.82 1.37 363.35 53.53 386.52 119.67 405.94 188.58 428.03 258.04 441.94 318.73 445.55 358.94 449.23 375.71 442.1 364.4 423.32 323.73 404.55 262.41 375.01 189.96 335.91 111.28 296.89 39.83 248.82 -16.7 194.19 -57.71 142.23 -76.32 88.14 -73.4 37.66 -52.13 -1.47 -14.49 -27.56 33.84 -33.7 91.51 -19.26 152.05 19.76 210.86 82.34 270.94 155.75 325.5 237.12 372.88 312.82 418.94 364.29 457.91 384.74 489.72 365.23 520.85 305.15 545.94 212.64 564.72 103.53 589.29 -38.57 600.57 -78.02 584.65 25.73 569.81 122.99 546.18 222.09 515.04 309.98 485.17 381.93 451.59 430.2 418.53 455.51 394.79 459.7 379.41 448.18 377.68 428.24 394.31 398.58 429.75 370.05 484.52 347.53 554.82 323.58 636.95 309.13 722.88 305.6 802.57 302.36 867.71 309.86 908.39 328.64Q908.4 328.65 908.4 328.65" opacity="0.18"></path><path d="M874.39 522.72C873.93 555.58 784.76 619.38 651.39 696.22 508.97 756.43 396.9 793.65 329.48 772.03 300.94 698.01 299.09 567.96 301.22 435.11 313.19 383.71 307.73 446.65 274.86 613.52 242 794.62 184.85 876.83 115.93 832.49 56.86 693.85 7.42 527.55 -7.09 396.26 17.25 309.21 94.46 274.99 212.79 265.2 322.08 273.98 397.93 270.2 398.39 237.33 310.84 204.47 181.82 145.65 65.27 79.92 -18.75 32.76 -37.3 15.69 -2.04 59.67 71.27 147.9 161.07 279.34 241.74 393.9 325.78 414.15 388.22 318.62 421.08 137.52 453.95 -29.34 454.12 -78.96 427.02 -3.48 403.3 153.45 364.78 318.36 334.53 435.45 342.35 500.14 395.74 514.2 503.86 510.93 644.5 491.04 786.84 489.86 874.39 522.72Q874.39 522.72 874.39 522.72" opacity="0.28"></path><path d="M840.41 640.66C845.77 668.83 782.94 701.55 679.82 725.04 557.56 733.77 444.73 709.02 358.9 638.97 295.33 550.9 256.96 443.62 232.59 361.39 217.56 353.55 199.8 431.42 171.63 579.48 143.47 738.16 107.56 830.36 73.78 829.94 49.34 750.08 43.75 622.99 70.4 496.45 119.31 378.99 202.27 296.6 303.88 245.26 386.36 208 437.77 180.42 432.41 152.25 361.84 124.09 257.33 98 154.46 86.45 63.58 88.97 15.21 127.41 9.33 207.94 33.03 297.56 80.6 394.78 132.8 454 192.11 433.79 240.82 330.2 268.98 171.53 297.16 23.45 302.12 -43.03 291.63 -14.55 288.23 88.31 284.62 225.47 297.82 350.46 340.62 457.44 418.85 526.14 530.37 566.23 653.88 591.55 769.82 612.49 840.4 640.65Q840.41 640.66 840.41 640.66" opacity="0.18"></path><path d="M806.41 609.35C815.7 632.82 775.63 638.82 702.57 623.44 608.29 601.49 510.78 550.61 425.82 475.67 348.75 406.64 289.87 341.67 247.69 309.97 211.26 334.98 182.62 418.37 159.15 545.48 127.64 726.47 127.98 740.54 185.41 611.85 239.6 507.86 312.21 416.99 389.29 349.68 445.15 287.25 475.7 244.36 466.41 220.89 411.51 197.41 331.14 195.59 247.19 217.34 162.67 243.97 102.02 298.21 70.55 371.42 56.58 432.49 65.7 481.33 87.62 490.25 116.02 442.41 145.55 340.1 169.02 205.53 192.49 78.4 207.69 4.5 219.97 -3.31 238.71 45.58 266.23 135.44 310.95 235.24 373.18 340.95 458.72 428.46 560.44 491.09 661.6 547.15 751.48 585.87 806.4 609.34Q806.41 609.35 806.41 609.35" opacity="0.35"></path><path d="M772.34 448.13C783.73 466.91 762.12 462.58 716.41 438.27 652.83 414.36 580.87 373.73 512.05 326.54 442.37 293.81 382.77 274.21 337.13 282.78 293.44 327.28 261.39 407.14 242.62 511.43 223.84 620.54 220.1 705.5 231.25 752.77 244.35 766.32 274.64 743.28 319.71 697.96 363.93 635.44 415.96 570.46 465.78 515.91 497.73 459.67 511.73 419.35 500.34 400.57 459.6 381.79 401.88 386.34 339.45 410.04 270.96 432.04 213.69 467.72 173.9 505.63 141.08 526.34 126 529.46 125.88 502.15 129.49 441.11 142.05 348.54 160.83 239.43 179.61 135.14 202.83 62.89 231.76 32.15 264.42 37.35 308.81 76.86 366.24 134.21 430.63 206.01 507.82 275.94 590.08 332.4 666.27 389.25 731.6 429.35 772.34 448.13Q772.34 448.13 772.34 448.13" opacity="0.23"></path><path d="M738.41 257.11C743.77 285.28 679.34 261.6 594.65 231.55 495.25 247.23 416.53 329.42 388.36 477.48 360.19 636.17 387.92 719.77 450.4 719.84 498.17 672.83 539.77 608.13 534.41 579.97 463.84 551.8 371.09 565.5 303.87 575.59 239.53 538.6 219.67 432.17 247.84 273.48 276 125.42 346.87 66.06 448.12 87.3 552.26 154.26 667.84 228.94 738.41 257.11Q738.41 257.11 738.41 257.11" opacity="0.43"></path><path d="M704.4 154.67C696.26 192.23 576.51 260.23 538.96 443.47 501.4 645.07 560.26 685.23 568.4 647.67 462.74 610.12 357.67 509.07 395.23 307.47 432.78 124.23 598.74 117.12 704.4 154.67Q704.4 154.67 704.4 154.67" opacity="0.60"></path></g></svg>